<svg width="18" height="12" viewBox="0 0 18 12" xmlns="http://www.w3.org/2000/svg">
<path d="M4.5 11.25C3.875 11.25 3.34375 11.0312 2.90625 10.5938C2.46875 10.1562 2.25 9.625 2.25 9H0.75V2.25C0.75 1.8375 0.896875 1.48438 1.19063 1.19063C1.48438 0.896875 1.8375 0.75 2.25 0.75H12.75L17.25 5.25V9H15.75C15.75 9.625 15.5312 10.1562 15.0938 10.5938C14.6562 11.0312 14.125 11.25 13.5 11.25C12.875 11.25 12.3438 11.0312 11.9062 10.5938C11.4688 10.1562 11.25 9.625 11.25 9H6.75C6.75 9.625 6.53125 10.1562 6.09375 10.5938C5.65625 11.0312 5.125 11.25 4.5 11.25ZM11.25 4.5H14.25L12 2.25H11.25V4.5ZM6.75 4.5H9.75V2.25H6.75V4.5ZM2.25 4.5H5.25V2.25H2.25V4.5ZM4.5 9.9375C4.7625 9.9375 4.98438 9.84688 5.16563 9.66562C5.34688 9.48438 5.4375 9.2625 5.4375 9C5.4375 8.7375 5.34688 8.51562 5.16563 8.33438C4.98438 8.15313 4.7625 8.0625 4.5 8.0625C4.2375 8.0625 4.01563 8.15313 3.83438 8.33438C3.65313 8.51562 3.5625 8.7375 3.5625 9C3.5625 9.2625 3.65313 9.48438 3.83438 9.66562C4.01563 9.84688 4.2375 9.9375 4.5 9.9375ZM13.5 9.9375C13.7625 9.9375 13.9844 9.84688 14.1656 9.66562C14.3469 9.48438 14.4375 9.2625 14.4375 9C14.4375 8.7375 14.3469 8.51562 14.1656 8.33438C13.9844 8.15313 13.7625 8.0625 13.5 8.0625C13.2375 8.0625 13.0156 8.15313 12.8344 8.33438C12.6531 8.51562 12.5625 8.7375 12.5625 9C12.5625 9.2625 12.6531 9.48438 12.8344 9.66562C13.0156 9.84688 13.2375 9.9375 13.5 9.9375ZM2.25 7.5H2.85C3.0625 7.275 3.30625 7.09375 3.58125 6.95625C3.85625 6.81875 4.1625 6.75 4.5 6.75C4.8375 6.75 5.14375 6.81875 5.41875 6.95625C5.69375 7.09375 5.9375 7.275 6.15 7.5H11.85C12.0625 7.275 12.3063 7.09375 12.5813 6.95625C12.8563 6.81875 13.1625 6.75 13.5 6.75C13.8375 6.75 14.1438 6.81875 14.4188 6.95625C14.6938 7.09375 14.9375 7.275 15.15 7.5H15.75V6H2.25V7.5Z"/>
</svg>
