<svg width="14" height="12" viewBox="0 0 14 12" xmlns="http://www.w3.org/2000/svg">
<path fill="#fff" d="M1.66666 11.3332C1.29999 11.3332 0.986106 11.2026 0.724995 10.9415C0.463884 10.6804 0.333328 10.3665 0.333328 9.99984V7.33317C0.699995 7.33317 1.01388 7.20262 1.27499 6.9415C1.53611 6.68039 1.66666 6.3665 1.66666 5.99984C1.66666 5.63317 1.53611 5.31928 1.27499 5.05817C1.01388 4.79706 0.699995 4.6665 0.333328 4.6665V1.99984C0.333328 1.63317 0.463884 1.31928 0.724995 1.05817C0.986106 0.797059 1.29999 0.666504 1.66666 0.666504H12.3333C12.7 0.666504 13.0139 0.797059 13.275 1.05817C13.5361 1.31928 13.6667 1.63317 13.6667 1.99984V9.99984C13.6667 10.3665 13.5361 10.6804 13.275 10.9415C13.0139 11.2026 12.7 11.3332 12.3333 11.3332H1.66666ZM1.66666 9.99984H12.3333V1.99984H1.66666V3.69984C2.07777 3.94428 2.40277 4.26928 2.64166 4.67484C2.88055 5.08039 2.99999 5.52206 2.99999 5.99984C2.99999 6.47762 2.88055 6.91928 2.64166 7.32484C2.40277 7.73039 2.07777 8.05539 1.66666 8.29984V9.99984ZM4.89999 8.43317L10.8333 6.8665C11 6.82206 11.125 6.71928 11.2083 6.55817C11.2917 6.39706 11.3111 6.23317 11.2667 6.0665C11.2222 5.89984 11.125 5.77484 10.975 5.6915C10.825 5.60817 10.6667 5.58873 10.5 5.63317L8.86666 6.0665L6.19999 3.5665L5.26666 3.79984L6.86666 6.59984L5.26666 6.99984L4.43333 6.3665L3.79999 6.53317L4.89999 8.43317Z"/>
</svg>
