<svg width="18" height="20" viewBox="0 0 18 20" xmlns="http://www.w3.org/2000/svg">
<path d="M2.70587 19.7059C2.18822 19.7059 1.74509 19.5215 1.37646 19.1529C1.00783 18.7843 0.823517 18.3411 0.823517 17.8235V4.64703C0.823517 4.12938 1.00783 3.68625 1.37646 3.31762C1.74509 2.94899 2.18822 2.76468 2.70587 2.76468H3.64705V0.882324H5.5294V2.76468H13.0588V0.882324H14.9412V2.76468H15.8823C16.4 2.76468 16.8431 2.94899 17.2118 3.31762C17.5804 3.68625 17.7647 4.12938 17.7647 4.64703V17.8235C17.7647 18.3411 17.5804 18.7843 17.2118 19.1529C16.8431 19.5215 16.4 19.7059 15.8823 19.7059H2.70587ZM2.70587 17.8235H15.8823V8.41174H2.70587V17.8235ZM2.70587 6.52938H15.8823V4.64703H2.70587V6.52938ZM9.29411 12.1764C9.02744 12.1764 8.80391 12.0862 8.62352 11.9059C8.44313 11.7255 8.35293 11.5019 8.35293 11.2353C8.35293 10.9686 8.44313 10.7451 8.62352 10.5647C8.80391 10.3843 9.02744 10.2941 9.29411 10.2941C9.56077 10.2941 9.7843 10.3843 9.96469 10.5647C10.1451 10.7451 10.2353 10.9686 10.2353 11.2353C10.2353 11.5019 10.1451 11.7255 9.96469 11.9059C9.7843 12.0862 9.56077 12.1764 9.29411 12.1764ZM5.5294 12.1764C5.26273 12.1764 5.0392 12.0862 4.85881 11.9059C4.67842 11.7255 4.58822 11.5019 4.58822 11.2353C4.58822 10.9686 4.67842 10.7451 4.85881 10.5647C5.0392 10.3843 5.26273 10.2941 5.5294 10.2941C5.79607 10.2941 6.0196 10.3843 6.19999 10.5647C6.38038 10.7451 6.47058 10.9686 6.47058 11.2353C6.47058 11.5019 6.38038 11.7255 6.19999 11.9059C6.0196 12.0862 5.79607 12.1764 5.5294 12.1764ZM13.0588 12.1764C12.7921 12.1764 12.5686 12.0862 12.3882 11.9059C12.2078 11.7255 12.1176 11.5019 12.1176 11.2353C12.1176 10.9686 12.2078 10.7451 12.3882 10.5647C12.5686 10.3843 12.7921 10.2941 13.0588 10.2941C13.3255 10.2941 13.549 10.3843 13.7294 10.5647C13.9098 10.7451 14 10.9686 14 11.2353C14 11.5019 13.9098 11.7255 13.7294 11.9059C13.549 12.0862 13.3255 12.1764 13.0588 12.1764ZM9.29411 15.9411C9.02744 15.9411 8.80391 15.851 8.62352 15.6706C8.44313 15.4902 8.35293 15.2666 8.35293 15C8.35293 14.7333 8.44313 14.5098 8.62352 14.3294C8.80391 14.149 9.02744 14.0588 9.29411 14.0588C9.56077 14.0588 9.7843 14.149 9.96469 14.3294C10.1451 14.5098 10.2353 14.7333 10.2353 15C10.2353 15.2666 10.1451 15.4902 9.96469 15.6706C9.7843 15.851 9.56077 15.9411 9.29411 15.9411ZM5.5294 15.9411C5.26273 15.9411 5.0392 15.851 4.85881 15.6706C4.67842 15.4902 4.58822 15.2666 4.58822 15C4.58822 14.7333 4.67842 14.5098 4.85881 14.3294C5.0392 14.149 5.26273 14.0588 5.5294 14.0588C5.79607 14.0588 6.0196 14.149 6.19999 14.3294C6.38038 14.5098 6.47058 14.7333 6.47058 15C6.47058 15.2666 6.38038 15.4902 6.19999 15.6706C6.0196 15.851 5.79607 15.9411 5.5294 15.9411ZM13.0588 15.9411C12.7921 15.9411 12.5686 15.851 12.3882 15.6706C12.2078 15.4902 12.1176 15.2666 12.1176 15C12.1176 14.7333 12.2078 14.5098 12.3882 14.3294C12.5686 14.149 12.7921 14.0588 13.0588 14.0588C13.3255 14.0588 13.549 14.149 13.7294 14.3294C13.9098 14.5098 14 14.7333 14 15C14 15.2666 13.9098 15.4902 13.7294 15.6706C13.549 15.851 13.3255 15.9411 13.0588 15.9411Z"/>
</svg>
