<svg width="16" height="16" viewBox="0 0 16 16" fill="none" xmlns="http://www.w3.org/2000/svg">
<mask id="mask0_0_41" style="mask-type:alpha" maskUnits="userSpaceOnUse" x="0" y="0" width="16" height="16">
<rect x="0.5" y="0.5" width="15" height="15" fill="#D9D9D9"/>
</mask>
<g mask="url(#mask0_0_41)">
<path d="M12.9688 13.625C11.625 13.625 10.3151 13.3255 9.03906 12.7266C7.76302 12.1276 6.63281 11.3359 5.64844 10.3516C4.66406 9.36719 3.8724 8.23698 3.27344 6.96094C2.67448 5.6849 2.375 4.375 2.375 3.03125C2.375 2.84375 2.4375 2.6875 2.5625 2.5625C2.6875 2.4375 2.84375 2.375 3.03125 2.375H5.5625C5.70833 2.375 5.83854 2.42188 5.95312 2.51562C6.06771 2.60938 6.13542 2.72917 6.15625 2.875L6.5625 5.0625C6.58333 5.20833 6.58073 5.34115 6.55469 5.46094C6.52865 5.58073 6.46875 5.6875 6.375 5.78125L4.85938 7.3125C5.29688 8.0625 5.84635 8.76563 6.50781 9.42188C7.16927 10.0781 7.89583 10.6458 8.6875 11.125L10.1562 9.65625C10.25 9.5625 10.3724 9.49219 10.5234 9.44531C10.6745 9.39844 10.8229 9.38542 10.9688 9.40625L13.125 9.84375C13.2708 9.875 13.3906 9.94531 13.4844 10.0547C13.5781 10.1641 13.625 10.2917 13.625 10.4375V12.9688C13.625 13.1563 13.5625 13.3125 13.4375 13.4375C13.3125 13.5625 13.1563 13.625 12.9688 13.625ZM4.26562 6.125L5.29688 5.09375L5.03125 3.625H3.64062C3.69271 4.05208 3.76562 4.47396 3.85938 4.89062C3.95312 5.30729 4.08854 5.71875 4.26562 6.125ZM9.85938 11.7188C10.2656 11.8958 10.6797 12.0365 11.1016 12.1406C11.5234 12.2448 11.9479 12.3125 12.375 12.3438V10.9688L10.9062 10.6719L9.85938 11.7188Z" fill="white"/>
</g>
</svg>
