<svg width="14" height="16" viewBox="0 0 14 16" xmlns="http://www.w3.org/2000/svg">
<path d="M10 15.8334L7.83333 12.1667H5.33333C5.09722 12.1667 4.8993 12.0869 4.73958 11.9272C4.57986 11.7674 4.49999 11.5695 4.49999 11.3334C4.49999 11.0973 4.57986 10.8994 4.73958 10.7397C4.8993 10.5799 5.09722 10.5001 5.33333 10.5001H7.83333L10 6.83342H10.9167L9.83333 10.5001H12.2083L12.8333 9.66675H13.6667L13.1667 11.3334L13.6667 13.0001H12.8333L12.2083 12.1667H9.83333L10.9167 15.8334H10ZM3.08333 9.16675L4.16666 5.50008H1.79166L1.16666 6.33342H0.333328L0.833328 4.66675L0.333328 3.00008H1.16666L1.79166 3.83342H4.16666L3.08333 0.166748H3.99999L6.16666 3.83342H8.66666C8.90277 3.83342 9.10069 3.91328 9.26041 4.073C9.42013 4.23272 9.49999 4.43064 9.49999 4.66675C9.49999 4.90286 9.42013 5.10078 9.26041 5.2605C9.10069 5.42022 8.90277 5.50008 8.66666 5.50008H6.16666L3.99999 9.16675H3.08333Z"/>
</svg>
