<svg width="13" height="9" viewBox="0 0 13 9" xmlns="http://www.w3.org/2000/svg">
<path fill="#fff" d="M0.541687 8.83317V6.6665C0.541687 6.35956 0.647763 6.10227 0.859916 5.89463C1.07207 5.68699 1.3271 5.58317 1.62502 5.58317H3.39898C3.57953 5.58317 3.75106 5.62831 3.91356 5.71859C4.07606 5.80886 4.20696 5.93074 4.30627 6.08421C4.56808 6.4363 4.89082 6.71164 5.2745 6.91025C5.65818 7.10886 6.06669 7.20817 6.50002 7.20817C6.94238 7.20817 7.3554 7.10886 7.73908 6.91025C8.12276 6.71164 8.44099 6.4363 8.69377 6.08421C8.81113 5.93074 8.9488 5.80886 9.10679 5.71859C9.26478 5.62831 9.42953 5.58317 9.60106 5.58317H11.375C11.682 5.58317 11.9393 5.68699 12.1469 5.89463C12.3545 6.10227 12.4584 6.35956 12.4584 6.6665V8.83317H8.66669V7.60088C8.35071 7.82657 8.00992 7.9981 7.64429 8.11546C7.27867 8.23282 6.89724 8.2915 6.50002 8.2915C6.11183 8.2915 5.73266 8.23057 5.36252 8.10869C4.99238 7.98682 4.64933 7.81303 4.33335 7.58734V8.83317H0.541687ZM6.50002 6.6665C6.15696 6.6665 5.83196 6.58751 5.52502 6.42952C5.21808 6.27154 4.96078 6.05261 4.75315 5.77275C4.59967 5.54706 4.40783 5.36876 4.17762 5.23786C3.94742 5.10696 3.6969 5.0415 3.42606 5.0415C3.62467 4.70748 4.04446 4.44341 4.68544 4.24932C5.32641 4.05522 5.93127 3.95817 6.50002 3.95817C7.06877 3.95817 7.67363 4.05522 8.3146 4.24932C8.95558 4.44341 9.37537 4.70748 9.57398 5.0415C9.31217 5.0415 9.06391 5.10696 8.82919 5.23786C8.59446 5.36876 8.40037 5.54706 8.24689 5.77275C8.04828 6.06164 7.79551 6.28282 7.48856 6.4363C7.18162 6.58977 6.8521 6.6665 6.50002 6.6665ZM2.16669 5.0415C1.7153 5.0415 1.33162 4.88352 1.01565 4.56755C0.699673 4.25157 0.541687 3.86789 0.541687 3.4165C0.541687 2.95609 0.699673 2.57015 1.01565 2.25869C1.33162 1.94723 1.7153 1.7915 2.16669 1.7915C2.6271 1.7915 3.01304 1.94723 3.3245 2.25869C3.63596 2.57015 3.79169 2.95609 3.79169 3.4165C3.79169 3.86789 3.63596 4.25157 3.3245 4.56755C3.01304 4.88352 2.6271 5.0415 2.16669 5.0415ZM10.8334 5.0415C10.382 5.0415 9.99828 4.88352 9.68231 4.56755C9.36634 4.25157 9.20835 3.86789 9.20835 3.4165C9.20835 2.95609 9.36634 2.57015 9.68231 2.25869C9.99828 1.94723 10.382 1.7915 10.8334 1.7915C11.2938 1.7915 11.6797 1.94723 11.9912 2.25869C12.3026 2.57015 12.4584 2.95609 12.4584 3.4165C12.4584 3.86789 12.3026 4.25157 11.9912 4.56755C11.6797 4.88352 11.2938 5.0415 10.8334 5.0415ZM6.50002 3.4165C6.04863 3.4165 5.66495 3.25852 5.34898 2.94255C5.03301 2.62657 4.87502 2.24289 4.87502 1.7915C4.87502 1.33109 5.03301 0.94515 5.34898 0.633691C5.66495 0.322233 6.04863 0.166504 6.50002 0.166504C6.96044 0.166504 7.34637 0.322233 7.65783 0.633691C7.96929 0.94515 8.12502 1.33109 8.12502 1.7915C8.12502 2.24289 7.96929 2.62657 7.65783 2.94255C7.34637 3.25852 6.96044 3.4165 6.50002 3.4165Z"/>
</svg>
