<svg width="20" height="20" viewBox="0 0 20 20" fill="none" xmlns="http://www.w3.org/2000/svg">
<mask id="mask0_0_1547" style="mask-type:alpha" maskUnits="userSpaceOnUse" x="0" y="0" width="20" height="20">
<rect width="20" height="20" fill="#D9D9D9"/>
</mask>
<g mask="url(#mask0_0_1547)">
<path d="M12.5 18.3334V16.6667H15.8334V8.33342H4.16669V11.6667H2.50003V5.00008C2.50003 4.54175 2.66322 4.14939 2.98961 3.823C3.316 3.49661 3.70836 3.33341 4.16669 3.33341H5.00003V1.66675H6.66669V3.33341H13.3334V1.66675H15V3.33341H15.8334C16.2917 3.33341 16.6841 3.49661 17.0104 3.823C17.3368 4.14939 17.5 4.54175 17.5 5.00008V16.6667C17.5 17.1251 17.3368 17.5174 17.0104 17.8438C16.6841 18.1702 16.2917 18.3334 15.8334 18.3334H12.5ZM6.66669 20.0001L5.50003 18.8334L7.64586 16.6667H0.833359V15.0001H7.64586L5.50003 12.8334L6.66669 11.6667L10.8334 15.8334L6.66669 20.0001ZM4.16669 6.66675H15.8334V5.00008H4.16669V6.66675Z" fill="#606060"/>
</g>
</svg>
