<svg width="20" height="14" viewBox="0 0 20 14" xmlns="http://www.w3.org/2000/svg">
<path d="M0.833328 13.6666V11.3333C0.833328 10.861 0.954856 10.427 1.19791 10.0312C1.44097 9.63533 1.76388 9.33325 2.16666 9.12492C3.02777 8.69436 3.90277 8.37145 4.79166 8.15617C5.68055 7.94089 6.58333 7.83325 7.5 7.83325C8.41666 7.83325 9.31944 7.94089 10.2083 8.15617C11.0972 8.37145 11.9722 8.69436 12.8333 9.12492C13.2361 9.33325 13.559 9.63533 13.8021 10.0312C14.0451 10.427 14.1667 10.861 14.1667 11.3333V13.6666H0.833328ZM15.8333 13.6666V11.1666C15.8333 10.5555 15.6632 9.96867 15.3229 9.40617C14.9826 8.84367 14.5 8.36103 13.875 7.95825C14.5833 8.04159 15.25 8.18395 15.875 8.38533C16.5 8.58672 17.0833 8.83325 17.625 9.12492C18.125 9.4027 18.5069 9.71172 18.7708 10.052C19.0347 10.3923 19.1667 10.7638 19.1667 11.1666V13.6666H15.8333ZM7.5 6.99992C6.58333 6.99992 5.79861 6.67353 5.14583 6.02075C4.49305 5.36797 4.16666 4.58325 4.16666 3.66659C4.16666 2.74992 4.49305 1.9652 5.14583 1.31242C5.79861 0.659641 6.58333 0.333252 7.5 0.333252C8.41666 0.333252 9.20138 0.659641 9.85416 1.31242C10.5069 1.9652 10.8333 2.74992 10.8333 3.66659C10.8333 4.58325 10.5069 5.36797 9.85416 6.02075C9.20138 6.67353 8.41666 6.99992 7.5 6.99992ZM15.8333 3.66659C15.8333 4.58325 15.5069 5.36797 14.8542 6.02075C14.2014 6.67353 13.4167 6.99992 12.5 6.99992C12.3472 6.99992 12.1528 6.98256 11.9167 6.94783C11.6806 6.91311 11.4861 6.87492 11.3333 6.83325C11.7083 6.38881 11.9965 5.89575 12.1979 5.35409C12.3993 4.81242 12.5 4.24992 12.5 3.66659C12.5 3.08325 12.3993 2.52075 12.1979 1.97909C11.9965 1.43742 11.7083 0.944363 11.3333 0.499919C11.5278 0.430474 11.7222 0.385335 11.9167 0.364502C12.1111 0.343669 12.3056 0.333252 12.5 0.333252C13.4167 0.333252 14.2014 0.659641 14.8542 1.31242C15.5069 1.9652 15.8333 2.74992 15.8333 3.66659ZM2.49999 11.9999H12.5V11.3333C12.5 11.1805 12.4618 11.0416 12.3854 10.9166C12.309 10.7916 12.2083 10.6944 12.0833 10.6249C11.3333 10.2499 10.5764 9.96867 9.8125 9.78117C9.04861 9.59367 8.27777 9.49992 7.5 9.49992C6.72222 9.49992 5.95138 9.59367 5.1875 9.78117C4.42361 9.96867 3.66666 10.2499 2.91666 10.6249C2.79166 10.6944 2.69097 10.7916 2.61458 10.9166C2.53819 11.0416 2.49999 11.1805 2.49999 11.3333V11.9999ZM7.5 5.33325C7.95833 5.33325 8.35069 5.17006 8.67708 4.84367C9.00347 4.51728 9.16666 4.12492 9.16666 3.66659C9.16666 3.20825 9.00347 2.81589 8.67708 2.4895C8.35069 2.16311 7.95833 1.99992 7.5 1.99992C7.04166 1.99992 6.6493 2.16311 6.32291 2.4895C5.99652 2.81589 5.83333 3.20825 5.83333 3.66659C5.83333 4.12492 5.99652 4.51728 6.32291 4.84367C6.6493 5.17006 7.04166 5.33325 7.5 5.33325Z"/>
</svg>
