<svg width="14" height="18" viewBox="0 0 14 18" xmlns="http://www.w3.org/2000/svg">
<path fill="#7d7d7d"  d="M6.99999 9.00008C7.45833 9.00008 7.85069 8.83689 8.17708 8.5105C8.50347 8.18411 8.66666 7.79175 8.66666 7.33341C8.66666 6.87508 8.50347 6.48272 8.17708 6.15633C7.85069 5.82994 7.45833 5.66675 6.99999 5.66675C6.54166 5.66675 6.1493 5.82994 5.82291 6.15633C5.49652 6.48272 5.33333 6.87508 5.33333 7.33341C5.33333 7.79175 5.49652 8.18411 5.82291 8.5105C6.1493 8.83689 6.54166 9.00008 6.99999 9.00008ZM6.99999 15.1251C8.69444 13.5695 9.95138 12.1563 10.7708 10.8855C11.5903 9.61466 12 8.48619 12 7.50008C12 5.98619 11.5174 4.74661 10.5521 3.78133C9.5868 2.81605 8.40277 2.33341 6.99999 2.33341C5.59722 2.33341 4.41319 2.81605 3.44791 3.78133C2.48263 4.74661 1.99999 5.98619 1.99999 7.50008C1.99999 8.48619 2.40972 9.61466 3.22916 10.8855C4.04861 12.1563 5.30555 13.5695 6.99999 15.1251ZM6.99999 17.3334C4.76388 15.4306 3.09374 13.6633 1.98958 12.0313C0.885412 10.3994 0.333328 8.88897 0.333328 7.50008C0.333328 5.41675 1.00347 3.75703 2.34374 2.52091C3.68402 1.2848 5.23611 0.666748 6.99999 0.666748C8.76388 0.666748 10.316 1.2848 11.6562 2.52091C12.9965 3.75703 13.6667 5.41675 13.6667 7.50008C13.6667 8.88897 13.1146 10.3994 12.0104 12.0313C10.9062 13.6633 9.23611 15.4306 6.99999 17.3334Z"/>
</svg>
