<svg width="178" height="31" viewBox="0 0 178 31" fill="none" xmlns="http://www.w3.org/2000/svg">
<path d="M40.3579 20.5542H42.237V20.6436C42.237 20.9121 42.3066 21.1507 42.4458 21.3595C42.595 21.5683 42.8187 21.7274 43.117 21.8367C43.4152 21.9362 43.7483 21.9859 44.1162 21.9859C44.494 21.9859 44.8469 21.9014 45.175 21.7323C45.5131 21.5534 45.7567 21.28 45.9058 20.9121C46.0549 20.5442 46.1295 19.7339 46.1295 18.4812V8.60832H47.9937V18.5259C47.9937 20.0968 47.8247 21.1706 47.4867 21.7473C47.1486 22.3239 46.731 22.7465 46.2339 23.0149C45.7368 23.2933 45.0607 23.4325 44.2057 23.4325C42.8038 23.4325 41.8095 23.1442 41.2229 22.5675C40.6463 21.9809 40.3579 21.3396 40.3579 20.6436V20.5542ZM57.6767 23C57.4977 22.4432 57.4082 21.966 57.4082 21.5683C56.6526 22.314 56.0063 22.7862 55.4694 22.9851C54.9425 23.1839 54.4305 23.2834 53.9333 23.2834C53.1181 23.2834 52.4121 23.0348 51.8156 22.5377C51.229 22.0306 50.9357 21.3346 50.9357 20.4498C50.9357 19.4456 51.3483 18.675 52.1735 18.1381C53.0087 17.5913 54.4454 17.119 56.4836 16.7213L57.4082 16.5424V15.3791C57.4082 14.7428 57.1945 14.2954 56.7669 14.0369C56.3394 13.7784 55.8274 13.6491 55.2308 13.6491C54.515 13.6491 53.9532 13.8082 53.5456 14.1264C53.1479 14.4346 52.949 14.8025 52.949 15.23V15.3791H51.0699V15.23C51.0699 14.7726 51.2638 14.3004 51.6515 13.8132C52.0393 13.326 52.5513 12.9581 53.1877 12.7096C53.8339 12.461 54.5349 12.3367 55.2905 12.3367C56.0461 12.3367 56.7321 12.456 57.3486 12.6947C57.965 12.9333 58.4174 13.2514 58.7057 13.6491C58.994 14.0468 59.1382 14.7925 59.1382 15.8862V19.9129C59.1382 20.3603 59.1481 20.8276 59.168 21.3148C59.1879 21.792 59.2973 22.3537 59.4961 23H57.6767ZM57.4082 17.7653L56.8862 17.8995C55.1364 18.3271 54.0178 18.7347 53.5307 19.1224C53.0435 19.5003 52.7999 19.9526 52.7999 20.4796C52.7999 20.758 52.8695 21.0165 53.0087 21.2551C53.1578 21.4838 53.3716 21.6627 53.65 21.792C53.9383 21.9212 54.2217 21.9859 54.5001 21.9859C54.9872 21.9859 55.4645 21.8467 55.9318 21.5683C56.3991 21.2899 56.762 20.9171 57.0205 20.4498C57.279 19.9725 57.4082 19.4207 57.4082 18.7943V17.7653ZM70.5121 21.5683V23H62.0859V21.5683L68.2452 14.0816H62.235V12.635H70.2884V14.0816L64.2483 21.5683H70.5121ZM80.2454 20.3305H81.9605V20.4349C81.9605 20.8922 81.7766 21.3595 81.4087 21.8367C81.0508 22.314 80.5686 22.6769 79.9621 22.9254C79.3655 23.1641 78.6795 23.2834 77.904 23.2834C76.3231 23.2834 75.1052 22.7763 74.2501 21.7622C73.3951 20.7381 72.9676 19.4456 72.9676 17.8846C72.9676 16.2938 73.42 14.9765 74.3247 13.9325C75.2295 12.8786 76.3977 12.3516 77.8294 12.3516C78.6149 12.3516 79.3258 12.5207 79.9621 12.8587C80.5984 13.1968 81.1005 13.7287 81.4684 14.4545C81.8462 15.1703 82.0351 16.1745 82.0351 17.467V18.0338H74.6677C74.6677 19.1473 74.966 20.062 75.5625 20.7779C76.1591 21.4937 76.9893 21.8516 78.0531 21.8516C78.8088 21.8516 79.3606 21.7075 79.7085 21.4192C80.0665 21.1209 80.2454 20.7928 80.2454 20.4349V20.3305ZM74.787 16.7363H80.3797V16.5275C80.3797 16.0502 80.2603 15.5829 80.0217 15.1256C79.7931 14.6682 79.4749 14.3302 79.0673 14.1115C78.6596 13.8927 78.1824 13.7834 77.6355 13.7834C76.9992 13.7834 76.4077 14.0419 75.8608 14.5589C75.314 15.0759 74.9561 15.8017 74.787 16.7363ZM91.7441 20.3305H93.4592V20.4349C93.4592 20.8922 93.2753 21.3595 92.9074 21.8367C92.5495 22.314 92.0673 22.6769 91.4608 22.9254C90.8642 23.1641 90.1782 23.2834 89.4027 23.2834C87.8219 23.2834 86.6039 22.7763 85.7489 21.7622C84.8938 20.7381 84.4663 19.4456 84.4663 17.8846C84.4663 16.2938 84.9187 14.9765 85.8234 13.9325C86.7282 12.8786 87.8964 12.3516 89.3281 12.3516C90.1136 12.3516 90.8245 12.5207 91.4608 12.8587C92.0971 13.1968 92.5992 13.7287 92.9671 14.4545C93.3449 15.1703 93.5338 16.1745 93.5338 17.467V18.0338H86.1664C86.1664 19.1473 86.4647 20.062 87.0613 20.7779C87.6578 21.4937 88.488 21.8516 89.5518 21.8516C90.3075 21.8516 90.8593 21.7075 91.2073 21.4192C91.5652 21.1209 91.7441 20.7928 91.7441 20.4349V20.3305ZM86.2857 16.7363H91.8784V16.5275C91.8784 16.0502 91.7591 15.5829 91.5204 15.1256C91.2918 14.6682 90.9736 14.3302 90.566 14.1115C90.1583 13.8927 89.6811 13.7834 89.1343 13.7834C88.4979 13.7834 87.9064 14.0419 87.3595 14.5589C86.8127 15.0759 86.4548 15.8017 86.2857 16.7363ZM98.1871 23H96.4571V12.635H98.1871V14.4694C98.4755 13.9424 98.7886 13.5348 99.1267 13.2465C99.4647 12.9482 99.8227 12.7245 100.2 12.5754C100.578 12.4262 100.966 12.3516 101.364 12.3516C101.722 12.3516 102.03 12.4014 102.288 12.5008V14.2904C101.881 14.1015 101.448 14.0071 100.991 14.0071C100.345 14.0071 99.7133 14.2904 99.0969 14.8571C98.4904 15.4239 98.1871 16.433 98.1871 17.8846V23ZM110.754 23C110.575 22.4432 110.486 21.966 110.486 21.5683C109.73 22.314 109.084 22.7862 108.547 22.9851C108.02 23.1839 107.508 23.2834 107.011 23.2834C106.196 23.2834 105.49 23.0348 104.893 22.5377C104.307 22.0306 104.013 21.3346 104.013 20.4498C104.013 19.4456 104.426 18.675 105.251 18.1381C106.086 17.5913 107.523 17.119 109.561 16.7213L110.486 16.5424V15.3791C110.486 14.7428 110.272 14.2954 109.844 14.0369C109.417 13.7784 108.905 13.6491 108.308 13.6491C107.593 13.6491 107.031 13.8082 106.623 14.1264C106.225 14.4346 106.027 14.8025 106.027 15.23V15.3791H104.147V15.23C104.147 14.7726 104.341 14.3004 104.729 13.8132C105.117 13.326 105.629 12.9581 106.265 12.7096C106.911 12.461 107.612 12.3367 108.368 12.3367C109.124 12.3367 109.81 12.456 110.426 12.6947C111.043 12.9333 111.495 13.2514 111.783 13.6491C112.072 14.0468 112.216 14.7925 112.216 15.8862V19.9129C112.216 20.3603 112.226 20.8276 112.246 21.3148C112.265 21.792 112.375 22.3537 112.574 23H110.754ZM110.486 17.7653L109.964 17.8995C108.214 18.3271 107.095 18.7347 106.608 19.1224C106.121 19.5003 105.877 19.9526 105.877 20.4796C105.877 20.758 105.947 21.0165 106.086 21.2551C106.235 21.4838 106.449 21.6627 106.728 21.792C107.016 21.9212 107.299 21.9859 107.578 21.9859C108.065 21.9859 108.542 21.8467 109.009 21.5683C109.477 21.2899 109.839 20.9171 110.098 20.4498C110.357 19.9725 110.486 19.4207 110.486 18.7943V17.7653ZM123.505 23V10.0549H118.598V8.60832H130.186V10.0549H125.369V23H123.505ZM134.144 23H132.414V12.635H134.144V14.4694C134.432 13.9424 134.745 13.5348 135.083 13.2465C135.421 12.9482 135.779 12.7245 136.157 12.5754C136.535 12.4262 136.923 12.3516 137.32 12.3516C137.678 12.3516 137.987 12.4014 138.245 12.5008V14.2904C137.837 14.1015 137.405 14.0071 136.948 14.0071C136.301 14.0071 135.67 14.2904 135.054 14.8571C134.447 15.4239 134.144 16.433 134.144 17.8846V23ZM146.711 23C146.532 22.4432 146.443 21.966 146.443 21.5683C145.687 22.314 145.041 22.7862 144.504 22.9851C143.977 23.1839 143.465 23.2834 142.968 23.2834C142.152 23.2834 141.446 23.0348 140.85 22.5377C140.263 22.0306 139.97 21.3346 139.97 20.4498C139.97 19.4456 140.383 18.675 141.208 18.1381C142.043 17.5913 143.48 17.119 145.518 16.7213L146.443 16.5424V15.3791C146.443 14.7428 146.229 14.2954 145.801 14.0369C145.374 13.7784 144.862 13.6491 144.265 13.6491C143.549 13.6491 142.988 13.8082 142.58 14.1264C142.182 14.4346 141.983 14.8025 141.983 15.23V15.3791H140.104V15.23C140.104 14.7726 140.298 14.3004 140.686 13.8132C141.074 13.326 141.586 12.9581 142.222 12.7096C142.868 12.461 143.569 12.3367 144.325 12.3367C145.08 12.3367 145.766 12.456 146.383 12.6947C146.999 12.9333 147.452 13.2514 147.74 13.6491C148.028 14.0468 148.172 14.7925 148.172 15.8862V19.9129C148.172 20.3603 148.182 20.8276 148.202 21.3148C148.222 21.792 148.332 22.3537 148.53 23H146.711ZM146.443 17.7653L145.921 17.8995C144.171 18.3271 143.052 18.7347 142.565 19.1224C142.078 19.5003 141.834 19.9526 141.834 20.4796C141.834 20.758 141.904 21.0165 142.043 21.2551C142.192 21.4838 142.406 21.6627 142.684 21.792C142.973 21.9212 143.256 21.9859 143.534 21.9859C144.022 21.9859 144.499 21.8467 144.966 21.5683C145.433 21.2899 145.796 20.9171 146.055 20.4498C146.313 19.9725 146.443 19.4207 146.443 18.7943V17.7653ZM154.476 23L150.255 12.635H152.119L155.43 20.763L158.831 12.635H160.546L156.206 23H154.476ZM169.484 20.3305H171.199V20.4349C171.199 20.8922 171.015 21.3595 170.647 21.8367C170.289 22.314 169.807 22.6769 169.2 22.9254C168.604 23.1641 167.918 23.2834 167.142 23.2834C165.562 23.2834 164.344 22.7763 163.489 21.7622C162.633 20.7381 162.206 19.4456 162.206 17.8846C162.206 16.2938 162.658 14.9765 163.563 13.9325C164.468 12.8786 165.636 12.3516 167.068 12.3516C167.853 12.3516 168.564 12.5207 169.2 12.8587C169.837 13.1968 170.339 13.7287 170.707 14.4545C171.085 15.1703 171.273 16.1745 171.273 17.467V18.0338H163.906C163.906 19.1473 164.204 20.062 164.801 20.7779C165.397 21.4937 166.228 21.8516 167.292 21.8516C168.047 21.8516 168.599 21.7075 168.947 21.4192C169.305 21.1209 169.484 20.7928 169.484 20.4349V20.3305ZM164.025 16.7363H169.618V16.5275C169.618 16.0502 169.499 15.5829 169.26 15.1256C169.031 14.6682 168.713 14.3302 168.306 14.1115C167.898 13.8927 167.421 13.7834 166.874 13.7834C166.238 13.7834 165.646 14.0419 165.099 14.5589C164.552 15.0759 164.194 15.8017 164.025 16.7363ZM175.927 23H174.197V8.02669H175.927V23Z" fill="white"/>
<path fill-rule="evenodd" clip-rule="evenodd" d="M15.4976 4.868e-07C18.5803 -0.000801091 21.5927 0.988339 24.1477 2.84029C26.7072 4.69572 28.694 7.32779 29.8546 10.4008C31.0172 13.4775 31.3027 16.8556 30.6748 20.1068C30.0483 23.356 28.5358 26.3315 26.3298 28.6549C23.9701 26.4235 20.7694 25.2765 17.5642 25.3392C16.9229 22.4063 16.7789 20.1327 16.4649 18.9339C16.1985 17.9211 15.8624 17.2515 15.5985 16.9157C17.8604 16.2605 19.7634 17.3884 21.235 20.6639C21.5255 16.7018 19.0732 14.1933 15.6809 16.1529C16.0615 15.1775 17.0263 14.5216 17.9911 14.1674C18.9756 13.8064 20.2664 13.4951 21.4709 14.0196C18.8588 11.9844 16.6629 12.3304 15.3264 15.8355C15.6924 11.5308 11.7368 11.4442 9.97467 12.2745C12.0127 12.8344 13.8364 13.7192 14.7751 15.939C11.0479 12.4775 7.49261 15.3648 7.3112 18.7112C9.08854 16.8108 11.0181 15.1659 14.7422 16.5084C10.2728 16.6889 9.75013 21.3512 11.8421 23.7903C10.8716 20.4112 12.4662 17.5185 14.973 17.0233C16.1313 18.8113 16.5956 22.0323 16.5886 25.4012C13.0746 25.7383 9.66005 27.5535 7.45646 31C4.56218 29.1043 2.32442 26.2445 1.08416 22.8565C-0.15877 19.4641 -0.338251 15.7291 0.572908 12.2173C1.48228 8.7094 3.43386 5.61645 6.13074 3.40903C8.82234 1.20612 12.1127 0.0123567 15.497 0.0108985" fill="white"/>
</svg>
