<svg width="8" height="20" viewBox="0 0 8 20" xmlns="http://www.w3.org/2000/svg">
<path d="M2 20V13H0V7C0 6.45 0.195833 5.97917 0.5875 5.5875C0.979167 5.19583 1.45 5 2 5H6C6.55 5 7.02083 5.19583 7.4125 5.5875C7.80417 5.97917 8 6.45 8 7V13H6V20H2ZM4 4C3.45 4 2.97917 3.80417 2.5875 3.4125C2.19583 3.02083 2 2.55 2 2C2 1.45 2.19583 0.979167 2.5875 0.5875C2.97917 0.195833 3.45 0 4 0C4.55 0 5.02083 0.195833 5.4125 0.5875C5.80417 0.979167 6 1.45 6 2C6 2.55 5.80417 3.02083 5.4125 3.4125C5.02083 3.80417 4.55 4 4 4Z"/>
</svg>
