<svg width="12" height="12" viewBox="0 0 12 12" xmlns="http://www.w3.org/2000/svg">
<path fill="#fff" d="M5.47499 10.0832H6.49582V9.354C6.98194 9.2665 7.39999 9.07692 7.74999 8.78525C8.09999 8.49359 8.27499 8.06095 8.27499 7.48734C8.27499 7.079 8.15832 6.7047 7.92499 6.36442C7.69166 6.02414 7.22499 5.72762 6.52499 5.47484C5.94166 5.28039 5.53818 5.11025 5.31457 4.96442C5.09096 4.81859 4.97916 4.61928 4.97916 4.3665C4.97916 4.11373 5.06909 3.91442 5.24895 3.76859C5.42881 3.62275 5.68888 3.54984 6.02916 3.54984C6.34027 3.54984 6.58332 3.62518 6.75832 3.77588C6.93332 3.92657 7.05971 4.11373 7.13749 4.33734L8.07082 3.95817C7.96388 3.61789 7.767 3.32137 7.4802 3.06859C7.19339 2.81581 6.87499 2.67484 6.52499 2.64567V1.9165H5.50416V2.64567C5.01805 2.75262 4.63888 2.9665 4.36666 3.28734C4.09443 3.60817 3.95832 3.96789 3.95832 4.3665C3.95832 4.82345 4.092 5.19289 4.35936 5.47484C4.62673 5.75678 5.04721 5.99984 5.62082 6.204C6.23332 6.42762 6.65867 6.62692 6.89687 6.80192C7.13506 6.97692 7.25416 7.20539 7.25416 7.48734C7.25416 7.80817 7.13992 8.04393 6.91145 8.19463C6.68298 8.34532 6.40832 8.42067 6.08749 8.42067C5.76666 8.42067 5.48228 8.32102 5.23436 8.12171C4.98645 7.92241 4.80416 7.62345 4.68749 7.22484L3.72499 7.604C3.8611 8.07067 4.07256 8.44741 4.35936 8.73421C4.64617 9.02102 5.01805 9.21789 5.47499 9.32484V10.0832ZM5.99999 11.8332C5.19305 11.8332 4.43471 11.68 3.72499 11.3738C3.01527 11.0675 2.39791 10.6519 1.87291 10.1269C1.34791 9.60192 0.932282 8.98456 0.626032 8.27484C0.319781 7.56512 0.166656 6.80678 0.166656 5.99984C0.166656 5.19289 0.319781 4.43456 0.626032 3.72484C0.932282 3.01512 1.34791 2.39775 1.87291 1.87275C2.39791 1.34775 3.01527 0.932129 3.72499 0.625879C4.43471 0.319629 5.19305 0.166504 5.99999 0.166504C6.80693 0.166504 7.56527 0.319629 8.27499 0.625879C8.98471 0.932129 9.60207 1.34775 10.1271 1.87275C10.6521 2.39775 11.0677 3.01512 11.3739 3.72484C11.6802 4.43456 11.8333 5.19289 11.8333 5.99984C11.8333 6.80678 11.6802 7.56512 11.3739 8.27484C11.0677 8.98456 10.6521 9.60192 10.1271 10.1269C9.60207 10.6519 8.98471 11.0675 8.27499 11.3738C7.56527 11.68 6.80693 11.8332 5.99999 11.8332ZM5.99999 10.6665C7.30277 10.6665 8.40624 10.2144 9.31041 9.31026C10.2146 8.40609 10.6667 7.30262 10.6667 5.99984C10.6667 4.69706 10.2146 3.59359 9.31041 2.68942C8.40624 1.78525 7.30277 1.33317 5.99999 1.33317C4.69721 1.33317 3.59374 1.78525 2.68957 2.68942C1.78541 3.59359 1.33332 4.69706 1.33332 5.99984C1.33332 7.30262 1.78541 8.40609 2.68957 9.31026C3.59374 10.2144 4.69721 10.6665 5.99999 10.6665Z"/>
</svg>
