<svg width="27" height="27" viewBox="0 0 27 27" fill="none" xmlns="http://www.w3.org/2000/svg">
<mask id="mask0_0_1558" style="mask-type:alpha" maskUnits="userSpaceOnUse" x="0" y="0" width="27" height="27">
<rect width="27" height="27" fill="#D9D9D9"/>
</mask>
<g mask="url(#mask0_0_1558)">
<path d="M22.05 23.625L14.9625 16.5375C14.4 16.9875 13.7531 17.3438 13.0219 17.6063C12.2906 17.8688 11.5125 18 10.6875 18C8.64375 18 6.91406 17.2922 5.49844 15.8766C4.08281 14.4609 3.375 12.7312 3.375 10.6875C3.375 8.64375 4.08281 6.91406 5.49844 5.49844C6.91406 4.08281 8.64375 3.375 10.6875 3.375C12.7312 3.375 14.4609 4.08281 15.8766 5.49844C17.2922 6.91406 18 8.64375 18 10.6875C18 11.5125 17.8688 12.2906 17.6063 13.0219C17.3438 13.7531 16.9875 14.4 16.5375 14.9625L23.625 22.05L22.05 23.625ZM10.6875 15.75C12.0938 15.75 13.2891 15.2578 14.2734 14.2734C15.2578 13.2891 15.75 12.0938 15.75 10.6875C15.75 9.28125 15.2578 8.08594 14.2734 7.10156C13.2891 6.11719 12.0938 5.625 10.6875 5.625C9.28125 5.625 8.08594 6.11719 7.10156 7.10156C6.11719 8.08594 5.625 9.28125 5.625 10.6875C5.625 12.0938 6.11719 13.2891 7.10156 14.2734C8.08594 15.2578 9.28125 15.75 10.6875 15.75Z" fill="white"/>
</g>
</svg>
