<svg width="24" height="24" viewBox="0 0 24 24" fill="none" xmlns="http://www.w3.org/2000/svg">
<mask id="mask0_0_2742" style="mask-type:alpha" maskUnits="userSpaceOnUse" x="0" y="0" width="24" height="24">
<rect width="24" height="24" fill="#D9D9D9"/>
</mask>
<g mask="url(#mask0_0_2742)">
<path d="M6.0299 22C5.47825 22 5.00602 21.8042 4.61318 21.4125C4.22034 21.0208 4.02393 20.55 4.02393 20V6C4.02393 5.45 4.22034 4.97917 4.61318 4.5875C5.00602 4.19583 5.47825 4 6.0299 4H7.03288V2H9.03885V4H17.0627V2H19.0687V4H20.0717C20.6233 4 21.0956 4.19583 21.4884 4.5875C21.8812 4.97917 22.0777 5.45 22.0777 6V12H20.0717V10H6.0299V20H13.0508V22H6.0299ZM23.206 17L21.0747 14.875L21.8018 14.15C21.9857 13.9667 22.2197 13.875 22.5039 13.875C22.7881 13.875 23.0221 13.9667 23.206 14.15L23.9332 14.875C24.1171 15.0583 24.209 15.2917 24.209 15.575C24.209 15.8583 24.1171 16.0917 23.9332 16.275L23.206 17ZM15.0568 23V20.875L20.3726 15.575L22.5039 17.7L17.1881 23H15.0568ZM6.0299 8H20.0717V6H6.0299V8Z" fill="#6B6B6B"/>
</g>
</svg>
