<svg width="20" height="20" viewBox="0 0 20 20" fill="none" xmlns="http://www.w3.org/2000/svg">
<mask id="mask0_0_986" style="mask-type:alpha" maskUnits="userSpaceOnUse" x="0" y="0" width="20" height="20">
<rect width="20" height="20" fill="#D9D9D9"/>
</mask>
<g mask="url(#mask0_0_986)">
<path d="M0.833496 16.6666V14.3333C0.833496 13.861 0.955024 13.427 1.19808 13.0312C1.44114 12.6353 1.76405 12.3333 2.16683 12.1249C3.02794 11.6944 3.90294 11.3714 4.79183 11.1562C5.68072 10.9409 6.5835 10.8333 7.50016 10.8333C8.41683 10.8333 9.31961 10.9409 10.2085 11.1562C11.0974 11.3714 11.9724 11.6944 12.8335 12.1249C13.2363 12.3333 13.5592 12.6353 13.8022 13.0312C14.0453 13.427 14.1668 13.861 14.1668 14.3333V16.6666H0.833496ZM15.8335 16.6666V14.1666C15.8335 13.5555 15.6634 12.9687 15.3231 12.4062C14.9828 11.8437 14.5002 11.361 13.8752 10.9583C14.5835 11.0416 15.2502 11.1839 15.8752 11.3853C16.5002 11.5867 17.0835 11.8333 17.6252 12.1249C18.1252 12.4027 18.5071 12.7117 18.771 13.052C19.0349 13.3923 19.1668 13.7638 19.1668 14.1666V16.6666H15.8335ZM7.50016 9.99992C6.5835 9.99992 5.79877 9.67353 5.146 9.02075C4.49322 8.36797 4.16683 7.58325 4.16683 6.66659C4.16683 5.74992 4.49322 4.9652 5.146 4.31242C5.79877 3.65964 6.5835 3.33325 7.50016 3.33325C8.41683 3.33325 9.20155 3.65964 9.85433 4.31242C10.5071 4.9652 10.8335 5.74992 10.8335 6.66659C10.8335 7.58325 10.5071 8.36797 9.85433 9.02075C9.20155 9.67353 8.41683 9.99992 7.50016 9.99992ZM15.8335 6.66659C15.8335 7.58325 15.5071 8.36797 14.8543 9.02075C14.2016 9.67353 13.4168 9.99992 12.5002 9.99992C12.3474 9.99992 12.1529 9.98256 11.9168 9.94783C11.6807 9.91311 11.4863 9.87492 11.3335 9.83325C11.7085 9.38881 11.9967 8.89575 12.1981 8.35409C12.3995 7.81242 12.5002 7.24992 12.5002 6.66659C12.5002 6.08325 12.3995 5.52075 12.1981 4.97909C11.9967 4.43742 11.7085 3.94436 11.3335 3.49992C11.5279 3.43047 11.7224 3.38534 11.9168 3.3645C12.1113 3.34367 12.3057 3.33325 12.5002 3.33325C13.4168 3.33325 14.2016 3.65964 14.8543 4.31242C15.5071 4.9652 15.8335 5.74992 15.8335 6.66659ZM2.50016 14.9999H12.5002V14.3333C12.5002 14.1805 12.462 14.0416 12.3856 13.9166C12.3092 13.7916 12.2085 13.6944 12.0835 13.6249C11.3335 13.2499 10.5766 12.9687 9.81266 12.7812C9.04877 12.5937 8.27794 12.4999 7.50016 12.4999C6.72239 12.4999 5.95155 12.5937 5.18766 12.7812C4.42377 12.9687 3.66683 13.2499 2.91683 13.6249C2.79183 13.6944 2.69114 13.7916 2.61475 13.9166C2.53836 14.0416 2.50016 14.1805 2.50016 14.3333V14.9999ZM7.50016 8.33325C7.9585 8.33325 8.35086 8.17006 8.67725 7.84367C9.00364 7.51728 9.16683 7.12492 9.16683 6.66659C9.16683 6.20825 9.00364 5.81589 8.67725 5.4895C8.35086 5.16311 7.9585 4.99992 7.50016 4.99992C7.04183 4.99992 6.64947 5.16311 6.32308 5.4895C5.99669 5.81589 5.8335 6.20825 5.8335 6.66659C5.8335 7.12492 5.99669 7.51728 6.32308 7.84367C6.64947 8.17006 7.04183 8.33325 7.50016 8.33325Z" fill="#7D7D7D"/>
</g>
</svg>
