<svg width="24" height="24" viewBox="0 0 24 24" fill="none" xmlns="http://www.w3.org/2000/svg">
<mask id="mask0_0_2745" style="mask-type:alpha" maskUnits="userSpaceOnUse" x="0" y="0" width="24" height="24">
<rect width="24" height="24" fill="#D9D9D9"/>
</mask>
<g mask="url(#mask0_0_2745)">
<path d="M14.0388 12C12.9355 12 11.991 11.6083 11.2053 10.825C10.4197 10.0417 10.0268 9.1 10.0268 8C10.0268 6.9 10.4197 5.95833 11.2053 5.175C11.991 4.39167 12.9355 4 14.0388 4C15.1421 4 16.0865 4.39167 16.8722 5.175C17.6579 5.95833 18.0507 6.9 18.0507 8C18.0507 9.1 17.6579 10.0417 16.8722 10.825C16.0865 11.6083 15.1421 12 14.0388 12ZM6.01489 20V17.2C6.01489 16.6333 6.16116 16.1125 6.4537 15.6375C6.74624 15.1625 7.13489 14.8 7.61967 14.55C8.65609 14.0333 9.70922 13.6458 10.7791 13.3875C11.8489 13.1292 12.9355 13 14.0388 13C15.1421 13 16.2286 13.1292 17.2985 13.3875C18.3683 13.6458 19.4215 14.0333 20.4579 14.55C20.9427 14.8 21.3313 15.1625 21.6238 15.6375C21.9164 16.1125 22.0627 16.6333 22.0627 17.2V20H6.01489ZM8.02086 18H20.0567V17.2C20.0567 17.0167 20.0107 16.85 19.9188 16.7C19.8268 16.55 19.7056 16.4333 19.5552 16.35C18.6525 15.9 17.7415 15.5625 16.8221 15.3375C15.9027 15.1125 14.9749 15 14.0388 15C13.1027 15 12.1749 15.1125 11.2555 15.3375C10.3361 15.5625 9.42504 15.9 8.52236 16.35C8.37191 16.4333 8.25071 16.55 8.15877 16.7C8.06683 16.85 8.02086 17.0167 8.02086 17.2V18ZM14.0388 10C14.5904 10 15.0627 9.80417 15.4555 9.4125C15.8483 9.02083 16.0447 8.55 16.0447 8C16.0447 7.45 15.8483 6.97917 15.4555 6.5875C15.0627 6.19583 14.5904 6 14.0388 6C13.4871 6 13.0149 6.19583 12.6221 6.5875C12.2292 6.97917 12.0328 7.45 12.0328 8C12.0328 8.55 12.2292 9.02083 12.6221 9.4125C13.0149 9.80417 13.4871 10 14.0388 10Z" fill="#6B6B6B"/>
</g>
</svg>
